<svg width="24" height="36" viewBox="0 0 24 36" fill="none" xmlns="http://www.w3.org/2000/svg">
<path d="M20.6838 30.8107C20.0733 30.8279 19.4936 31.0827 19.0681 31.521C18.6427 31.9592 18.4051 32.5462 18.406 33.157C18.4059 33.4648 18.4664 33.7697 18.5842 34.0542C18.7019 34.3387 18.8745 34.597 19.0922 34.8147C19.3098 35.0325 19.5682 35.2053 19.8527 35.3231C20.1371 35.441 20.4419 35.5016 20.7498 35.5016C21.0576 35.5016 21.3625 35.441 21.6469 35.3231C21.9313 35.2053 22.1897 35.0325 22.4073 34.8147C22.625 34.597 22.7976 34.3387 22.9153 34.0542C23.0331 33.7697 23.0936 33.4648 23.0935 33.157C23.094 32.8433 23.0315 32.5329 22.9097 32.2439C22.788 31.9549 22.6095 31.6932 22.3848 31.4744C22.1601 31.2556 21.8938 31.084 21.6016 30.9701C21.3094 30.8561 20.9973 30.8019 20.6838 30.8107ZM20.718 32.0632C20.8643 32.059 21.0099 32.0841 21.1463 32.1372C21.2827 32.1903 21.407 32.2702 21.512 32.3722C21.6169 32.4742 21.7004 32.5961 21.7573 32.7309C21.8142 32.8657 21.8435 33.0106 21.8435 33.157C21.8438 33.3008 21.8157 33.4433 21.7609 33.5762C21.706 33.7092 21.6255 33.8301 21.5239 33.9319C21.4223 34.0337 21.3017 34.1144 21.1688 34.1695C21.036 34.2247 20.8936 34.253 20.7497 34.253C20.6059 34.253 20.4635 34.2247 20.3306 34.1695C20.1978 34.1144 20.0771 34.0337 19.9755 33.9319C19.8739 33.8301 19.7934 33.7092 19.7386 33.5762C19.6838 33.4433 19.6557 33.3008 19.656 33.157C19.6559 32.8723 19.7667 32.5988 19.965 32.3946C20.1633 32.1903 20.4335 32.0715 20.718 32.0632Z" fill="#2F80ED"/>
<path d="M3.18139 30.8133C2.57172 30.831 1.99299 31.0859 1.56813 31.5235C1.14327 31.9611 0.905744 32.5471 0.906006 33.157C0.906843 33.7781 1.15414 34.3735 1.59359 34.8124C2.03304 35.2512 2.6287 35.4976 3.24976 35.4976C3.87081 35.4976 4.46648 35.2512 4.90592 34.8124C5.34537 34.3735 5.59267 33.7781 5.59351 33.157C5.59364 32.8434 5.53083 32.533 5.40879 32.2441C5.28676 31.9552 5.10798 31.6937 4.88305 31.4752C4.65812 31.2566 4.39161 31.0854 4.09932 30.9717C3.80702 30.858 3.49488 30.8041 3.18139 30.8133ZM3.22037 32.0608C3.36666 32.0569 3.51225 32.0823 3.64852 32.1357C3.78479 32.189 3.90896 32.2693 4.01368 32.3715C4.11841 32.4738 4.20155 32.5959 4.25819 32.7308C4.31483 32.8658 4.34381 33.0107 4.34342 33.157C4.34349 33.3007 4.31526 33.443 4.26032 33.5757C4.20539 33.7085 4.12484 33.8292 4.02327 33.9308C3.92169 34.0325 3.8011 34.113 3.66836 34.168C3.53562 34.223 3.39335 34.2514 3.24967 34.2514C3.10599 34.2514 2.96372 34.223 2.83098 34.168C2.69825 34.113 2.57765 34.0325 2.47608 33.9308C2.37451 33.8292 2.29395 33.7085 2.23902 33.5757C2.18408 33.443 2.15585 33.3007 2.15592 33.157C2.15516 32.8715 2.26607 32.597 2.46497 32.3922C2.66386 32.1873 2.93496 32.0685 3.22037 32.0608Z" fill="#2F80ED"/>
<path d="M22.259 18.0021C21.9572 17.7073 21.6302 17.4394 21.2817 17.2016L21.5592 14.5623L22.8023 14.6926L22.4353 18.1845C22.3783 18.1218 22.3195 18.0609 22.259 18.0017L22.259 18.0021Z" fill="#2F80ED"/>
<path d="M1.56451 18.1847L1.19751 14.6928L2.44066 14.5625L2.71808 17.2018C2.36962 17.4397 2.04263 17.7075 1.74086 18.0023C1.68032 18.0616 1.6215 18.1225 1.5645 18.1851L1.56451 18.1847Z" fill="#2F80ED"/>
<path d="M6.907 17.1929C6.11438 17.1784 5.32679 17.3216 4.58998 17.6142C3.85318 17.9067 3.18186 18.3427 2.61502 18.8969C2.17127 19.331 1.86686 19.8875 1.74061 20.4953C1.61436 21.1031 1.67198 21.7346 1.90614 22.3095C2.14029 22.8844 2.54037 23.3766 3.05534 23.7232C3.57032 24.0698 4.17686 24.2553 4.79763 24.2558H9.49978V26.4922C7.51386 27.0223 5.74816 28.1706 4.45828 29.771C4.85993 29.9147 5.23277 30.1288 5.55934 30.4033C6.35091 29.4667 7.33724 28.714 8.44957 28.1977C9.5619 27.6814 10.7735 27.4139 11.9998 27.4139C13.2261 27.4139 14.4376 27.6814 15.55 28.1977C16.6623 28.714 17.6486 29.4667 18.4402 30.4033C18.7668 30.1288 19.1396 29.9147 19.5413 29.771C18.2514 28.1706 16.4857 27.0223 14.4998 26.4922V24.2558H19.2019C19.8227 24.2553 20.4292 24.0698 20.9442 23.7232C21.4592 23.3766 21.8593 22.8844 22.0934 22.3095C22.3276 21.7346 22.3852 21.1031 22.259 20.4953C22.1327 19.8875 21.8283 19.331 21.3845 18.8969C20.6007 18.1308 19.6215 17.5947 18.5538 17.3472C17.4861 17.0996 16.3708 17.1501 15.3299 17.4931C13.1672 18.2069 10.8324 18.2069 8.6697 17.4931C8.1005 17.3052 7.5063 17.2039 6.907 17.1926V17.1929ZM6.88499 18.4428C7.35902 18.4522 7.82895 18.5328 8.27904 18.6818C10.6954 19.4791 13.304 19.4791 15.7204 18.6818C16.5441 18.4097 17.4268 18.3691 18.272 18.5646C19.1171 18.7601 19.8924 19.1841 20.5129 19.7903C20.7793 20.0508 20.962 20.3848 21.0377 20.7496C21.1134 21.1145 21.0787 21.4935 20.938 21.8385C20.7974 22.1835 20.5571 22.4788 20.2478 22.6867C19.9386 22.8946 19.5745 23.0056 19.2019 23.0056H4.7976C4.42521 23.0051 4.06141 22.8937 3.75256 22.6857C3.44371 22.4776 3.20381 22.1824 3.06344 21.8375C2.92307 21.4926 2.88858 21.1135 2.96437 20.7489C3.04016 20.3843 3.22281 20.0507 3.48902 19.7903C3.93756 19.3519 4.46876 19.0069 5.05175 18.7755C5.63474 18.5442 6.25789 18.4311 6.885 18.4426L6.88499 18.4428ZM10.7497 24.2558H13.2497V26.243C12.4199 26.135 11.5796 26.135 10.7497 26.243V24.2558Z" fill="#2F80ED"/>
<path d="M18.8898 1.92003C20.0262 2.40685 20.9419 3.2974 21.4603 4.41981C21.9786 5.54222 22.0627 6.81684 21.6963 7.99762L19.1488 16.2089C18.744 16.096 18.3301 16.0185 17.9118 15.9774L20.5025 7.62737C20.7772 6.74178 20.7142 5.78586 20.3254 4.94404C19.9367 4.10223 19.2499 3.43425 18.3975 3.06914C16.3759 2.20308 14.1994 1.75653 12 1.75653C9.80062 1.75653 7.62414 2.20308 5.60246 3.06914C4.75014 3.43425 4.06331 4.10223 3.67457 4.94404C3.28584 5.78586 3.22276 6.74178 3.49753 7.62737L6.08816 15.9774C5.66991 16.0185 5.25603 16.096 4.85123 16.2089L2.30366 7.99762C1.93732 6.81684 2.02142 5.54222 2.53974 4.41981C3.05805 3.2974 3.97382 2.40685 5.11024 1.92003C7.28747 0.987336 9.63141 0.506348 12 0.506348C14.3686 0.506348 16.7125 0.987336 18.8898 1.92003Z" fill="#2F80ED"/>
</svg>
