<svg width="38" height="38" viewBox="0 0 38 38" fill="none" xmlns="http://www.w3.org/2000/svg">
<path d="M24.5601 21.3198L28.6401 17.7998C29.0801 17.3998 29.2401 16.7998 29.0801 16.2398C28.8801 15.6798 28.4001 15.2798 27.8001 15.2398L22.4801 14.7998L20.4001 9.83976C20.1601 9.27976 19.6401 8.95976 19.0401 8.95976C18.4401 8.95976 17.9201 9.31976 17.6801 9.83976L15.6001 14.7998L10.2801 15.2398C9.68007 15.2798 9.20007 15.6798 9.00007 16.2398C8.80007 16.7998 9.00007 17.3998 9.44007 17.7998L13.5201 21.2798L12.2801 26.4798C12.1601 27.0398 12.3601 27.6398 12.8401 27.9998C13.3201 28.3598 13.9601 28.3598 14.4401 28.0798L19.0001 25.2798L23.5601 28.0798C23.8001 28.2398 24.0401 28.2798 24.3201 28.2798C24.6401 28.2798 24.9201 28.1998 25.1601 27.9998C25.6401 27.6398 25.8401 27.0398 25.7201 26.4798L24.5601 21.3198ZM23.4401 20.1598C23.0401 20.5198 22.8401 21.0798 22.9601 21.5998L24.1201 26.5598L19.8001 23.8798C19.5601 23.7198 19.3201 23.6798 19.0401 23.6798C18.7601 23.6798 18.5201 23.7598 18.2801 23.8798L13.9201 26.5198L15.0801 21.5598C15.2001 21.0398 15.0401 20.4798 14.6001 20.1198L10.7201 16.7998L15.8001 16.3998C16.3601 16.3598 16.8001 15.9998 17.0401 15.5198L19.0001 10.7998L21.0001 15.5198C21.2001 16.0398 21.6801 16.3598 22.2401 16.3998L27.3201 16.7998L23.4401 20.1598Z" fill="#2F80ED"/>
<path d="M19.04 5.32C19.48 5.32 19.84 4.96 19.84 4.52V0.8C19.84 0.36 19.48 0 19.04 0C18.6 0 18.24 0.36 18.24 0.8V4.52C18.24 4.96 18.6 5.32 19.04 5.32Z" fill="#2F80ED"/>
<path d="M8.19986 9.28011C8.35986 9.44011 8.55986 9.52011 8.75986 9.52011C8.95986 9.52011 9.15986 9.44011 9.31986 9.28011C9.63986 8.96011 9.63986 8.44011 9.31986 8.16011L6.71986 5.56011C6.39986 5.24011 5.87986 5.24011 5.59986 5.56011C5.27986 5.88011 5.27986 6.40011 5.59986 6.68011L8.19986 9.28011Z" fill="#2F80ED"/>
<path d="M4.52 18.1598H0.8C0.36 18.1598 0 18.5198 0 18.9598C0 19.3998 0.36 19.7598 0.8 19.7598H4.52C4.96 19.7598 5.32 19.3998 5.32 18.9598C5.32 18.5198 4.96 18.1598 4.52 18.1598Z" fill="#2F80ED"/>
<path d="M8.16007 28.64L5.56007 31.24C5.24007 31.56 5.24007 32.08 5.56007 32.36C5.72007 32.52 5.92007 32.6 6.12007 32.6C6.32007 32.6 6.52007 32.52 6.68007 32.36L9.28007 29.76C9.60007 29.44 9.60007 28.92 9.28007 28.64C8.96007 28.32 8.44007 28.32 8.16007 28.64Z" fill="#2F80ED"/>
<path d="M18.9599 32.6799C18.5199 32.6799 18.1599 33.0399 18.1599 33.4799V37.1999C18.1599 37.6399 18.5199 37.9999 18.9599 37.9999C19.3999 37.9999 19.7599 37.6399 19.7599 37.1999V33.4799C19.7599 33.0399 19.3999 32.6799 18.9599 32.6799Z" fill="#2F80ED"/>
<path d="M29.7999 28.7199C29.4799 28.3999 28.9599 28.3999 28.6799 28.7199C28.3599 29.0399 28.3599 29.5599 28.6799 29.8399L31.2799 32.4399C31.4399 32.5999 31.6399 32.6799 31.8399 32.6799C32.0399 32.6799 32.2399 32.5999 32.3999 32.4399C32.7199 32.1199 32.7199 31.5999 32.3999 31.3199L29.7999 28.7199Z" fill="#2F80ED"/>
<path d="M37.1999 18.2402H33.4799C33.0399 18.2402 32.6799 18.6002 32.6799 19.0402C32.6799 19.4802 33.0399 19.8402 33.4799 19.8402H37.1999C37.6399 19.8402 37.9999 19.4802 37.9999 19.0402C37.9999 18.6002 37.6399 18.2402 37.1999 18.2402Z" fill="#2F80ED"/>
<path d="M29.28 9.6C29.48 9.6 29.68 9.52 29.84 9.36L32.44 6.75999C32.76 6.43999 32.76 5.91999 32.44 5.63999C32.12 5.31999 31.6 5.31999 31.32 5.63999L28.72 8.19999C28.4 8.51999 28.4 9.03999 28.72 9.32C28.88 9.52 29.08 9.6 29.28 9.6Z" fill="#2F80ED"/>
</svg>
