<svg width="26" height="26" viewBox="0 0 26 26" fill="none" xmlns="http://www.w3.org/2000/svg">
<path fill-rule="evenodd" clip-rule="evenodd" d="M7.58329 17.3332L18.4166 17.3332C21.4082 17.3332 23.8333 19.7583 23.8333 22.7498C23.8333 23.3481 23.3483 23.8332 22.75 23.8332C22.1944 23.8332 21.7365 23.415 21.6739 22.8762L21.6611 22.5589C21.5659 20.916 20.2504 19.6005 18.6076 19.5054L18.4166 19.4998L7.58329 19.4998C5.78837 19.4998 4.33329 20.9549 4.33329 22.7498C4.33329 23.3481 3.84827 23.8332 3.24996 23.8332C2.65165 23.8332 2.16663 23.3481 2.16663 22.7498C2.16663 19.837 4.46579 17.4612 7.34833 17.3382L7.58329 17.3332L18.4166 17.3332L7.58329 17.3332ZM13 2.1665C16.5898 2.1665 19.5 5.07665 19.5 8.6665C19.5 12.2564 16.5898 15.1665 13 15.1665C9.41012 15.1665 6.49997 12.2564 6.49997 8.6665C6.49997 5.07665 9.41012 2.1665 13 2.1665ZM13 4.33317C10.6067 4.33317 8.66663 6.27327 8.66663 8.6665C8.66663 11.0597 10.6067 12.9998 13 12.9998C15.3932 12.9998 17.3333 11.0597 17.3333 8.6665C17.3333 6.27327 15.3932 4.33317 13 4.33317Z" fill="#197069"/>
</svg>
