<svg width="170" height="30" viewBox="0 0 170 30" fill="none" xmlns="http://www.w3.org/2000/svg">
<path d="M0.201111 2.98713C0.201111 1.40938 1.42973 0.166504 2.99278 0.166504C4.6016 0.166504 5.86894 1.41283 5.86894 2.98713C5.86894 4.52346 4.59808 5.76634 2.99278 5.76634C1.42973 5.76634 0.201111 4.52346 0.201111 2.98713ZM0.880548 10.7896C0.880548 10.3339 1.30299 9.87817 1.80993 9.87817H4.17915C4.64384 9.87817 5.10853 10.3339 5.10853 10.7896V28.1311C5.10853 28.6283 4.64384 29.0426 4.17915 29.0426H1.80993C1.30299 29.0426 0.880548 28.6283 0.880548 28.1311V10.7896Z" fill="#11B55B"/>
<path d="M9.71326 10.7886C9.71326 10.3329 10.1357 9.87718 10.6426 9.87718H11.6565C12.079 9.87718 12.3747 10.0843 12.4592 10.4572L13.0506 12.1178C13.473 11.6207 15.7155 9.46289 19.6091 9.46289C25.5726 9.46289 27.1814 13.5298 27.1814 18.5082V28.1336C27.1814 28.6308 26.7167 29.045 26.252 29.045H23.8828C23.3759 29.045 22.9534 28.6308 22.9534 28.1336V18.3391C22.9534 15.2284 21.6403 13.4021 19.1021 13.4021C16.0147 13.4021 14.237 15.5184 13.9412 16.1813V28.1302C13.9412 28.7516 13.6033 29.0416 12.8006 29.0416H10.6426C10.1357 29.0416 9.71326 28.6273 9.71326 28.1302V10.7886Z" fill="#11B55B"/>
<path d="M30.9094 9.87402V4.52277C30.9094 4.02562 31.3318 3.61133 31.8388 3.61133H34.2502C34.7572 3.61133 35.1374 4.02562 35.1374 4.52277V9.87402H40.2983C40.8052 9.87402 41.2277 10.2469 41.2277 10.7855V12.4875C41.2277 12.9432 40.8052 13.399 40.2983 13.399H35.1374V23.6043C35.1374 25.2235 35.7711 25.5549 36.704 25.5549C37.9326 25.5549 39.1154 25.0578 39.8336 24.6435C40.425 24.3121 40.8052 24.6435 40.9742 25.0578L41.7346 27.0084C41.9458 27.5056 41.7346 27.837 41.2699 28.127C40.4673 28.6241 38.1825 29.4976 35.8555 29.4976C31.962 29.4976 30.9059 27.1741 30.9059 23.7735V13.4024" fill="#11B55B"/>
<path d="M52.3909 9.45947C57.4673 9.45947 61.3186 13.1536 61.3186 18.2562C61.3186 18.5877 61.2763 19.2505 61.2341 19.5854C61.1918 20.0826 60.7694 20.414 60.3469 20.414H46.8498C46.892 22.9861 49.2612 25.641 52.6866 25.641C54.9291 25.641 56.2844 24.8538 57.4673 24.0218C57.8897 23.7318 58.2699 23.6075 58.6079 24.1047L59.7485 25.8481C60.0864 26.2624 60.2554 26.6353 59.664 27.1359C58.2664 28.3373 55.6859 29.5008 52.4296 29.5008C46.5048 29.5008 42.657 24.9367 42.657 19.4611C42.6605 14.065 46.5118 9.45947 52.3909 9.45947ZM57.1293 17.3414C57.0448 15.0179 55.1825 12.9844 52.3064 12.9844C49.219 12.9844 47.3567 14.935 47.061 17.3414H57.1293Z" fill="#11B55B"/>
<path d="M64.7369 0.91144C64.7369 0.45572 65.1593 0 65.6663 0H68.0355C68.5001 0 68.9648 0.45572 68.9648 0.91144V28.1304C68.9648 28.6275 68.5001 29.0418 68.0355 29.0418H65.6663C65.1593 29.0418 64.7369 28.6275 64.7369 28.1304V0.91144Z" fill="#11B55B"/>
<path d="M73.6576 0.91144C73.6576 0.45572 74.08 0 74.587 0H76.9562C77.4209 0 77.8856 0.45572 77.8856 0.91144V28.1304C77.8856 28.6275 77.4209 29.0418 76.9562 29.0418H74.587C74.08 29.0418 73.6576 28.6275 73.6576 28.1304V0.91144Z" fill="#11B55B"/>
<path d="M91.1292 9.45947C96.2056 9.45947 100.057 13.1536 100.057 18.2562C100.057 18.5877 100.015 19.2505 99.9724 19.5854C99.9302 20.0826 99.5077 20.414 99.0853 20.414H85.5881C85.6304 22.9861 87.9996 25.641 91.4249 25.641C93.6674 25.641 95.0192 24.8538 96.2056 24.0218C96.6281 23.7318 97.0083 23.6075 97.3462 24.1047L98.4868 25.8481C98.8248 26.2624 98.9937 26.6353 98.4023 27.1359C97.0047 28.3373 94.4243 29.5008 91.1679 29.5008C85.2466 29.5008 81.3953 24.9367 81.3953 19.4611C81.3953 14.065 85.2466 9.45947 91.1292 9.45947ZM95.8677 17.3414C95.7832 15.0179 93.9209 12.9844 91.0447 12.9844C87.9573 12.9844 86.095 14.935 85.7993 17.3414H95.8677Z" fill="#11B55B"/>
<path d="M112.255 9.45947C115.3 9.45947 117.543 10.5781 119.363 12.7773C119.743 13.233 119.616 13.7716 119.194 14.1479L117.67 15.5185C117.12 16.0156 116.74 15.6428 116.399 15.3113C115.512 14.3585 113.945 13.4021 112.378 13.4021C109.038 13.4021 106.454 16.0571 106.454 19.4611C106.454 22.9032 108.992 25.5616 112.248 25.5616C114.786 25.5616 115.8 24.1495 116.86 23.1967C117.282 22.7824 117.747 22.7824 118.173 23.1138L119.486 24.1495C119.951 24.5638 120.162 25.0195 119.824 25.5201C118.215 27.8851 115.592 29.5042 112.209 29.5042C106.753 29.5042 102.226 25.2716 102.226 19.506C102.229 13.8579 106.841 9.45947 112.255 9.45947Z" fill="#11B55B"/>
<path d="M122.925 9.87402V4.52277C122.925 4.02562 123.348 3.61133 123.855 3.61133H126.266C126.773 3.61133 127.153 4.02562 127.153 4.52277V9.87402H132.314C132.821 9.87402 133.244 10.2469 133.244 10.7855V12.4875C133.244 12.9432 132.821 13.399 132.314 13.399H127.153V23.6043C127.153 25.2235 127.787 25.5549 128.72 25.5549C129.949 25.5549 131.131 25.0578 131.85 24.6435C132.441 24.3121 132.821 24.6435 132.99 25.0578L133.751 27.0084C133.962 27.5056 133.751 27.837 133.286 28.127C132.483 28.6241 130.199 29.4976 127.872 29.4976C123.978 29.4976 122.922 27.1741 122.922 23.7735V13.4024" fill="#11B55B"/>
<path d="M135.859 10.7889C135.859 10.3332 136.324 9.87744 136.789 9.87744H139.158C139.665 9.87744 140.087 10.3332 140.087 10.7889V20.9942C140.087 24.1463 141.4 25.5583 143.896 25.5583C146.73 25.5583 148.297 23.2763 148.466 22.4063V10.7889C148.466 10.0017 148.846 9.87744 149.564 9.87744H151.722C152.229 9.87744 152.694 10.3332 152.694 10.7889V28.1304C152.694 28.6276 152.229 29.0418 151.722 29.0418H150.708C150.201 29.0418 149.99 28.7104 149.821 28.2547L149.314 26.8841C148.892 27.2984 147.114 29.4976 143.136 29.4976C137.299 29.4976 135.859 25.7206 135.859 20.7008V10.7889Z" fill="#11B55B"/>
<path d="M156.591 27.5501C156.295 27.343 156.042 26.9701 156.253 26.5558L157.14 24.7709C157.351 24.3566 157.9 24.2324 158.411 24.5224C159.551 25.1438 160.949 25.9344 163.276 25.9344C164.927 25.9344 165.856 25.1473 165.856 24.0666C165.856 22.7789 164.374 21.9503 161.667 20.7489C158.664 19.4197 156.38 17.8454 156.38 14.6899C156.38 12.2835 158.115 9.46289 162.854 9.46289C165.561 9.46289 167.592 10.25 168.564 10.8749C169.028 11.2064 169.24 11.7864 168.986 12.287L168.31 13.6162C168.014 14.1962 167.423 14.1547 167.039 13.989C165.684 13.409 164.374 13.0361 162.85 13.0361C161.157 13.0361 160.354 13.8647 160.354 14.7382C160.354 15.9845 161.752 16.7302 163.695 17.5588C167.289 19.0537 170 20.338 170 23.9078C170 26.8942 167.377 29.5077 163.019 29.5077C159.932 29.5008 157.689 28.2959 156.591 27.5501Z" fill="#11B55B"/>
</svg>
