<svg width="63" height="36" viewBox="0 0 63 36" fill="none" xmlns="http://www.w3.org/2000/svg">
<rect width="63" height="36" rx="8" fill="#1778F2"/>
<path d="M18 22.8974L23.6925 26.3333L22.1817 19.8583L27.2108 15.5016L20.5884 14.9399L18 8.83325L15.4117 14.9399L8.78918 15.5016L13.8184 19.8583L12.3075 26.3333L18 22.8974Z" fill="white"/>
<path d="M43.9382 19.825L43.7732 21.01H42.3632V23.035H40.9232V21.01H36.5432L36.3482 19.825L41.3282 13.435H42.3632V19.825H43.9382ZM40.9232 15.865L37.8932 19.825H40.9232V15.865ZM45.6352 20.2C45.8952 20.2 46.1152 20.3 46.2952 20.5C46.4752 20.69 46.5652 20.95 46.5652 21.28C46.5652 21.61 46.4902 21.95 46.3402 22.3C46.2002 22.66 46.0002 22.985 45.7402 23.275C45.4902 23.565 45.2052 23.795 44.8852 23.965L44.5402 23.29C44.7902 23.1 44.9952 22.91 45.1552 22.72C45.3252 22.53 45.4302 22.29 45.4702 22C45.2902 21.99 45.1202 21.895 44.9602 21.715C44.8102 21.525 44.7352 21.32 44.7352 21.1C44.7352 20.87 44.8202 20.665 44.9902 20.485C45.1702 20.295 45.3852 20.2 45.6352 20.2ZM54.3588 17.29C54.3588 18.17 54.1788 18.95 53.8188 19.63C53.4688 20.31 53.0088 20.89 52.4388 21.37C51.8788 21.84 51.2688 22.21 50.6088 22.48C49.9588 22.76 49.3338 22.94 48.7338 23.02L48.4638 21.88C48.8738 21.8 49.2988 21.68 49.7388 21.52C50.1888 21.36 50.6188 21.15 51.0288 20.89C51.4388 20.63 51.7988 20.315 52.1088 19.945C52.4288 19.565 52.6638 19.125 52.8138 18.625C52.5238 18.835 52.2088 19.005 51.8688 19.135C51.5388 19.255 51.1638 19.315 50.7438 19.315C50.0938 19.315 49.5188 19.19 49.0188 18.94C48.5288 18.69 48.1438 18.345 47.8638 17.905C47.5938 17.455 47.4588 16.94 47.4588 16.36C47.4588 15.77 47.5988 15.245 47.8788 14.785C48.1588 14.325 48.5388 13.965 49.0188 13.705C49.5088 13.445 50.0688 13.315 50.6988 13.315C51.3988 13.315 52.0238 13.465 52.5738 13.765C53.1238 14.065 53.5588 14.51 53.8788 15.1C54.1988 15.68 54.3588 16.41 54.3588 17.29ZM48.7938 16.285C48.7938 16.855 48.9738 17.31 49.3338 17.65C49.6938 17.99 50.1788 18.16 50.7888 18.16C51.1988 18.16 51.5838 18.065 51.9438 17.875C52.3138 17.685 52.6588 17.455 52.9788 17.185C52.9288 16.295 52.6888 15.63 52.2588 15.19C51.8288 14.74 51.3288 14.515 50.7588 14.515C50.1788 14.515 49.7038 14.685 49.3338 15.025C48.9738 15.355 48.7938 15.775 48.7938 16.285Z" fill="white"/>
</svg>
