<svg width="12" height="14" viewBox="0 0 12 14" fill="none" xmlns="http://www.w3.org/2000/svg">
<path d="M6.00016 0.333496C2.87658 0.333496 0.333496 2.87658 0.333496 6.00016C0.333496 7.40243 0.847931 8.68844 1.69287 9.67725L1.69548 9.67985L1.69743 9.68246C1.69743 9.68246 4.10807 12.4332 4.96631 13.2521C5.54102 13.8 6.45866 13.8 7.03337 13.2521C8.01163 12.3191 10.3035 9.68115 10.3035 9.68115L10.3049 9.6792L10.3068 9.67725C11.1525 8.68843 11.6668 7.40243 11.6668 6.00016C11.6668 2.87658 9.12375 0.333496 6.00016 0.333496ZM6.00016 1.3335C8.58325 1.3335 10.6668 3.41708 10.6668 6.00016C10.6668 7.15857 10.2447 8.21103 9.54639 9.02751C9.54184 9.03271 7.19684 11.7147 6.34326 12.5288C6.14531 12.7175 5.85437 12.7175 5.65641 12.5288C4.94302 11.8481 2.46053 9.03571 2.45329 9.02751L2.45264 9.02686C1.75527 8.21044 1.3335 7.15825 1.3335 6.00016C1.3335 3.41708 3.41708 1.3335 6.00016 1.3335ZM6.00016 4.00016C5.37516 4.00016 4.8431 4.25254 4.50146 4.63688C4.15983 5.02122 4.00016 5.51405 4.00016 6.00016C4.00016 6.48627 4.15983 6.9791 4.50146 7.36344C4.8431 7.74779 5.37516 8.00016 6.00016 8.00016C6.62516 8.00016 7.15722 7.74779 7.49886 7.36344C7.8405 6.9791 8.00016 6.48627 8.00016 6.00016C8.00016 5.51405 7.8405 5.02122 7.49886 4.63688C7.15722 4.25254 6.62516 4.00016 6.00016 4.00016ZM6.00016 5.00016C6.37516 5.00016 6.5931 5.12279 6.75146 5.30094C6.90983 5.4791 7.00016 5.73627 7.00016 6.00016C7.00016 6.26405 6.90983 6.52122 6.75146 6.69938C6.5931 6.87754 6.37516 7.00016 6.00016 7.00016C5.62516 7.00016 5.40722 6.87754 5.24886 6.69938C5.0905 6.52122 5.00016 6.26405 5.00016 6.00016C5.00016 5.73627 5.0905 5.4791 5.24886 5.30094C5.40722 5.12279 5.62516 5.00016 6.00016 5.00016Z" fill="#11B55B"/>
</svg>
