<?xml version="1.0" encoding="utf-8"?>
<!-- Generator: Adobe Illustrator 21.1.0, SVG Export Plug-In . SVG Version: 6.00 Build 0)  -->
<svg version="1.1" id="Capa_1" xmlns="http://www.w3.org/2000/svg" xmlns:xlink="http://www.w3.org/1999/xlink" x="0px" y="0px"
	 width="32px" height="32px" viewBox="0 0 32 32" style="enable-background:new 0 0 32 32;" xml:space="preserve">
<g>
	<g id="Right">
		<g>
			<path d="M9.4,17.6L9.4,17.6c-0.2,0.3-0.4,0.6-0.4,1c0,0.8,0.7,1.5,1.5,1.5c0.4,0,0.8-0.2,1.1-0.5l0,0l4.3-4.8l4.5,4.7l0,0
				c0.3,0.3,0.7,0.5,1.1,0.5c0.8,0,1.5-0.7,1.5-1.5c0-0.4-0.2-0.7-0.4-1l0,0L17,11.5c-0.3-0.3-0.7-0.5-1.1-0.5s-0.8,0.2-1.1,0.5
				L9.4,17.6z M0,16.2C0.1,25,7.4,32.1,16.2,32S32.1,24.6,32,15.8S24.6-0.1,15.8,0S-0.1,7.4,0,16.2z M29,15.8
				C29.1,23,23.3,28.9,16.2,29S3.1,23.3,3,16.2S8.7,3.1,15.8,3S28.9,8.7,29,15.8z"/>
		</g>
	</g>
</g>
</svg>
