<svg width="128" height="33" viewBox="0 0 128 33" fill="none" xmlns="http://www.w3.org/2000/svg">
<rect y="0.876953" width="32" height="32" rx="16" fill="#11B55B"/>
<g clip-path="url(#clip0)">
<path d="M17.5373 7.72559C16.171 7.72559 15.0113 8.14865 14.23 8.99756C13.4487 9.84647 13.0826 11.0571 13.0826 12.5018V13.9601H11.6324C10.8292 13.9601 10.1661 14.6288 10.174 15.4323L10.1862 16.6839C10.1862 16.6842 10.1862 16.6845 10.1862 16.6847C10.1956 17.4771 10.853 18.1291 11.6462 18.1284L13.0834 18.1276V25.0018C13.0834 25.7997 13.7438 26.4601 14.5417 26.4601H16.2084C17.0063 26.4601 17.6667 25.7997 17.6667 25.0018V18.1268H18.9566C19.6915 18.1268 20.3198 17.5669 20.4051 16.8369L20.5508 15.5869C20.6502 14.7313 19.9641 13.9601 19.1022 13.9601H17.6748L17.6927 12.5905C17.6928 12.5878 17.6928 12.5851 17.6927 12.5824C17.6927 12.2966 17.9099 12.0794 18.1957 12.0794L19.4074 12.0794C20.0567 12.0794 20.5964 11.5397 20.5964 10.8905V8.98617C20.5964 8.37549 20.1213 7.85608 19.514 7.80127C19.5135 7.80127 19.5129 7.80127 19.5124 7.80127C19.3939 7.7909 18.5742 7.72559 17.5373 7.72559ZM17.5373 8.97559C18.4864 8.97559 19.3389 9.04377 19.3464 9.04395V10.8294H18.1957C17.2348 10.8294 16.4427 11.6215 16.4427 12.5824L16.4167 14.577C16.4156 14.6597 16.431 14.7419 16.4619 14.8187C16.4929 14.8954 16.5387 14.9653 16.5969 15.0242C16.655 15.0831 16.7243 15.1298 16.8006 15.1618C16.877 15.1937 16.9589 15.2101 17.0417 15.2101H19.1022C19.2379 15.2101 19.3246 15.3085 19.309 15.4429L19.1641 16.6921C19.1511 16.8029 19.0675 16.8768 18.9566 16.8768H17.0417C16.8759 16.8768 16.717 16.9427 16.5998 17.0599C16.4826 17.1771 16.4167 17.336 16.4167 17.5018V25.0018C16.4167 25.1247 16.3313 25.2101 16.2084 25.2101H14.5417C14.4188 25.2101 14.3334 25.1247 14.3334 25.0018V17.5018C14.3333 17.336 14.2675 17.1771 14.1503 17.0599C14.0331 16.9427 13.8741 16.8768 13.7084 16.8768L11.6454 16.8784C11.6451 16.8784 11.6448 16.8784 11.6446 16.8784C11.524 16.8785 11.4383 16.7928 11.4362 16.6709L11.424 15.4201C11.4228 15.2969 11.5089 15.2101 11.6324 15.2101H13.7076C13.8733 15.2101 14.0323 15.1443 14.1495 15.027C14.2667 14.9098 14.3325 14.7509 14.3326 14.5851L14.3326 12.5018C14.3326 11.266 14.6383 10.4011 15.1504 9.84473C15.6625 9.28832 16.4174 8.97559 17.5373 8.97559Z" fill="white"/>
</g>
<rect x="48" y="0.876953" width="32" height="32" rx="16" fill="#11B55B"/>
<path d="M63.9406 10.4187C61.2936 10.4187 58.8343 10.6073 57.431 10.9005C57.428 10.9013 57.425 10.9021 57.422 10.9029C56.3648 11.1398 55.3692 11.8971 55.1596 13.0831C55.1594 13.0847 55.1591 13.0863 55.1588 13.088C54.9978 14.0438 54.8333 15.2898 54.8333 17.0854C54.8333 18.8775 54.9984 20.0905 55.202 21.0966C55.4167 22.2476 56.3892 23.0278 57.4627 23.2678C57.4678 23.2692 57.473 23.2706 57.4782 23.2719C58.9428 23.5605 61.3327 23.752 63.9796 23.752C66.6266 23.752 69.0178 23.5605 70.4827 23.2719C70.4879 23.2706 70.4931 23.2692 70.4982 23.2678C71.5554 23.0309 72.551 22.2736 72.7606 21.0876C72.7611 21.0847 72.7617 21.0817 72.7622 21.0787C72.9207 20.1034 73.1262 18.8585 73.1666 17.0601C73.1667 17.0555 73.1667 17.0509 73.1666 17.0463C73.1666 15.2469 72.9607 13.9931 72.7597 13.0001C72.5467 11.8466 71.5731 11.0643 70.4982 10.824C70.4818 10.8203 70.4652 10.8173 70.4485 10.815C69.0193 10.6141 66.5879 10.4187 63.9406 10.4187ZM63.9406 11.6687C66.5074 11.6687 68.8859 11.8609 70.2361 12.0487C70.8998 12.2013 71.427 12.6648 71.5309 13.2271C71.5314 13.2307 71.532 13.2342 71.5325 13.2377C71.7264 14.1946 71.9151 15.3323 71.9158 17.0374C71.8769 18.7479 71.6879 19.8957 71.5293 20.8712C71.421 21.4789 70.9133 21.8914 70.2304 22.0463C68.9188 22.3036 66.5592 22.502 63.9796 22.502C61.3997 22.502 59.0407 22.3029 57.7296 22.0455C57.0635 21.8942 56.5341 21.4293 56.43 20.8655C56.4292 20.8619 56.4284 20.8584 56.4276 20.8549C56.2358 19.9088 56.0833 18.8057 56.0833 17.0854C56.0833 15.3682 56.2356 14.2195 56.3901 13.3012C56.4978 12.6919 57.0068 12.2784 57.6914 12.1236C58.9059 11.8705 61.3583 11.6687 63.9406 11.6687ZM62.5254 13.5535C61.7785 13.5777 61.0833 14.1793 61.0833 14.9963V18.7585C61.0833 19.848 62.3193 20.5545 63.2659 20.0199C63.2659 20.0197 63.2659 20.0194 63.2659 20.0191L66.5952 18.1384C67.5486 17.5998 67.5486 16.1543 66.5952 15.6156L63.2659 13.7349C63.0293 13.6013 62.7743 13.5454 62.5254 13.5535ZM62.5303 14.7856C62.5678 14.7876 62.6088 14.7993 62.6507 14.823L65.98 16.7045C66.149 16.8 66.149 16.9549 65.98 17.0504L62.6507 18.9311C62.4831 19.0257 62.3333 18.9374 62.3333 18.7585V14.9963C62.3333 14.9069 62.3709 14.8402 62.4293 14.8075C62.4586 14.7912 62.4927 14.7835 62.5303 14.7856Z" fill="white"/>
<rect x="96" y="0.876953" width="32" height="32" rx="16" fill="#11B55B"/>
<path fill-rule="evenodd" clip-rule="evenodd" d="M111.06 8.8772H112.939C114.279 8.88023 114.587 8.89203 115.298 8.92448C116.15 8.96332 116.731 9.09858 117.24 9.29636C117.766 9.50079 118.212 9.77435 118.657 10.2191C119.102 10.6639 119.376 11.1101 119.58 11.6362C119.778 12.1451 119.913 12.7267 119.952 13.5782C119.989 14.4031 119.999 14.6852 120 16.6658V17.0878C119.999 19.0684 119.989 19.3505 119.952 20.1754C119.913 21.0269 119.778 21.6085 119.58 22.1174C119.376 22.6435 119.102 23.0896 118.657 23.5344C118.212 23.9792 117.766 24.2528 117.24 24.4572C116.731 24.655 116.15 24.7902 115.298 24.8291C114.473 24.8667 114.191 24.8766 112.211 24.8772H111.789C109.808 24.8766 109.526 24.8667 108.701 24.8291C107.849 24.7902 107.268 24.655 106.759 24.4572C106.233 24.2528 105.787 23.9792 105.342 23.5344C104.897 23.0896 104.624 22.6435 104.419 22.1174C104.221 21.6085 104.086 21.0269 104.047 20.1754C104.015 19.4642 104.003 19.1565 104 17.8163V15.9373C104.003 14.597 104.015 14.2893 104.047 13.5782C104.086 12.7267 104.221 12.1451 104.419 11.6362C104.624 11.1101 104.897 10.6639 105.342 10.2191C105.787 9.77435 106.233 9.50079 106.759 9.29636C107.268 9.09858 107.849 8.96332 108.701 8.92448C109.412 8.89203 109.72 8.88023 111.06 8.8772H112.939H111.06ZM112.586 10.3181H111.413C109.807 10.3198 109.526 10.3299 108.767 10.3645C107.987 10.4001 107.563 10.5304 107.281 10.64C106.908 10.7851 106.641 10.9585 106.361 11.2385C106.081 11.5184 105.908 11.7849 105.763 12.1583C105.653 12.4403 105.523 12.8639 105.487 13.6439C105.453 14.4032 105.443 14.6841 105.441 16.29V17.4636C105.443 19.0695 105.453 19.3504 105.487 20.1096C105.523 20.8897 105.653 21.3133 105.763 21.5952C105.908 21.9687 106.081 22.2352 106.361 22.5151C106.641 22.7951 106.908 22.9685 107.281 23.1136C107.563 23.2232 107.987 23.3535 108.767 23.3891C109.61 23.4275 109.863 23.4357 112 23.4357C114.136 23.4357 114.389 23.4275 115.232 23.3891C116.012 23.3535 116.436 23.2232 116.718 23.1136C117.091 22.9685 117.358 22.7951 117.638 22.5151C117.918 22.2352 118.091 21.9687 118.236 21.5952C118.346 21.3133 118.476 20.8897 118.512 20.1096C118.55 19.266 118.558 19.013 118.558 16.8768C118.558 14.7406 118.55 14.4875 118.512 13.6439C118.476 12.8639 118.346 12.4403 118.236 12.1583C118.091 11.7849 117.918 11.5184 117.638 11.2385C117.358 10.9585 117.091 10.7851 116.718 10.64C116.436 10.5304 116.012 10.4001 115.232 10.3645C114.473 10.3299 114.192 10.3198 112.586 10.3181ZM112 12.8766C114.209 12.8766 116 14.6675 116 16.8768C116 19.0861 114.209 20.877 112 20.877C109.79 20.877 107.999 19.0861 107.999 16.8768C107.999 14.6675 109.79 12.8766 112 12.8766ZM112 14.2801C110.565 14.2801 109.403 15.4427 109.403 16.8768C109.403 18.3109 110.565 19.4734 112 19.4734C113.434 19.4734 114.596 18.3109 114.596 16.8768C114.596 15.4427 113.434 14.2801 112 14.2801ZM116.333 11.5432C116.885 11.5432 117.333 11.9909 117.333 12.5432C117.333 13.0955 116.885 13.5433 116.333 13.5433C115.781 13.5433 115.333 13.0955 115.333 12.5432C115.333 11.9909 115.781 11.5432 116.333 11.5432Z" fill="white"/>
<defs>
<clipPath id="clip0">
<rect width="20" height="20" fill="white" transform="translate(6 6.87695)"/>
</clipPath>
</defs>
</svg>
