<svg width="282" height="28" viewBox="0 0 282 28" fill="none" xmlns="http://www.w3.org/2000/svg">
<path d="M38.4725 2.38414C38.4725 1.12483 39.4532 0.132812 40.7007 0.132812C41.9848 0.132812 42.9964 1.12759 42.9964 2.38414C42.9964 3.61039 41.982 4.6024 40.7007 4.6024C39.4532 4.6024 38.4725 3.61039 38.4725 2.38414ZM39.0148 8.61181C39.0148 8.24807 39.352 7.88433 39.7566 7.88433H41.6477C42.0186 7.88433 42.3895 8.24807 42.3895 8.61181V22.4532C42.3895 22.85 42.0186 23.1807 41.6477 23.1807H39.7566C39.352 23.1807 39.0148 22.85 39.0148 22.4532V8.61181Z" fill="white"/>
<path d="M46.0647 8.61113C46.0647 8.24739 46.4019 7.88365 46.8065 7.88365H47.6157C47.9529 7.88365 48.1889 8.04899 48.2564 8.34659L48.7284 9.67204C49.0656 9.27523 50.8555 7.55298 53.9632 7.55298C58.7231 7.55298 60.0072 10.7991 60.0072 14.7727V22.4553C60.0072 22.8521 59.6363 23.1828 59.2654 23.1828H57.3743C56.9697 23.1828 56.6325 22.8521 56.6325 22.4553V14.6376C56.6325 12.1548 55.5845 10.6971 53.5586 10.6971C51.0943 10.6971 49.6754 12.3863 49.4393 12.9154V22.4525C49.4393 22.9485 49.1696 23.18 48.5289 23.18H46.8065C46.4019 23.18 46.0647 22.8493 46.0647 22.4525V8.61113Z" fill="white"/>
<path d="M62.9827 7.88099V3.6098C62.9827 3.213 63.3199 2.88232 63.7245 2.88232H65.6493C66.0539 2.88232 66.3574 3.213 66.3574 3.6098V7.88099H70.4766C70.8812 7.88099 71.2184 8.1786 71.2184 8.60847V9.96698C71.2184 10.3307 70.8812 10.6945 70.4766 10.6945H66.3574V18.84C66.3574 20.1324 66.8631 20.3969 67.6077 20.3969C68.5884 20.3969 69.5325 20.0001 70.1057 19.6695C70.5777 19.4049 70.8812 19.6695 71.0161 20.0001L71.623 21.5571C71.7916 21.9539 71.623 22.2184 71.2521 22.4499C70.6115 22.8467 68.7879 23.5438 66.9306 23.5438C63.8229 23.5438 62.9799 21.6893 62.9799 18.9751V10.6972" fill="white"/>
<path d="M80.1285 7.55029C84.1803 7.55029 87.2543 10.4988 87.2543 14.5716C87.2543 14.8361 87.2206 15.3652 87.1868 15.6325C87.1531 16.0293 86.8159 16.2938 86.4788 16.2938H75.7058C75.7395 18.3468 77.6305 20.4658 80.3645 20.4658C82.1544 20.4658 83.2362 19.8375 84.1803 19.1734C84.5175 18.942 84.8209 18.8428 85.0907 19.2396L86.0011 20.6311C86.2708 20.9618 86.4057 21.2594 85.9336 21.659C84.8181 22.6179 82.7585 23.5466 80.1594 23.5466C75.4304 23.5466 72.3593 19.9037 72.3593 15.5333C72.3621 11.2263 75.436 7.55029 80.1285 7.55029ZM83.9106 13.8413C83.8431 11.9868 82.3567 10.3638 80.0611 10.3638C77.5968 10.3638 76.1104 11.9207 75.8744 13.8413H83.9106Z" fill="white"/>
<path d="M89.9826 0.72748C89.9826 0.36374 90.3198 0 90.7244 0H92.6154C92.9863 0 93.3572 0.36374 93.3572 0.72748V22.4527C93.3572 22.8495 92.9863 23.1801 92.6154 23.1801H90.7244C90.3198 23.1801 89.9826 22.8495 89.9826 22.4527V0.72748Z" fill="white"/>
<path d="M97.1028 0.72748C97.1028 0.36374 97.44 0 97.8446 0H99.7357C100.107 0 100.477 0.36374 100.477 0.72748V22.4527C100.477 22.8495 100.107 23.1801 99.7357 23.1801H97.8446C97.44 23.1801 97.1028 22.8495 97.1028 22.4527V0.72748Z" fill="white"/>
<path d="M111.048 7.55029C115.1 7.55029 118.174 10.4988 118.174 14.5716C118.174 14.8361 118.14 15.3652 118.106 15.6325C118.073 16.0293 117.735 16.2938 117.398 16.2938H106.625C106.659 18.3468 108.55 20.4658 111.284 20.4658C113.074 20.4658 114.153 19.8375 115.1 19.1734C115.437 18.942 115.741 18.8428 116.01 19.2396L116.921 20.6311C117.19 20.9618 117.325 21.2594 116.853 21.659C115.738 22.6179 113.678 23.5466 111.079 23.5466C106.353 23.5466 103.279 19.9037 103.279 15.5333C103.279 11.2263 106.353 7.55029 111.048 7.55029ZM114.83 13.8413C114.763 11.9868 113.276 10.3638 110.981 10.3638C108.516 10.3638 107.03 11.9207 106.794 13.8413H114.83Z" fill="white"/>
<path d="M127.91 7.55029C130.341 7.55029 132.131 8.44311 133.583 10.1984C133.887 10.5622 133.786 10.992 133.448 11.2924L132.232 12.3864C131.793 12.7832 131.49 12.4856 131.217 12.221C130.509 11.4605 129.259 10.6972 128.008 10.6972C125.342 10.6972 123.279 12.8163 123.279 15.5333C123.279 18.2806 125.305 20.4024 127.904 20.4024C129.93 20.4024 130.74 19.2754 131.585 18.5148C131.923 18.1842 132.293 18.1842 132.633 18.4487L133.682 19.2754C134.052 19.6061 134.221 19.9698 133.951 20.3694C132.667 22.257 130.574 23.5493 127.874 23.5493C123.518 23.5493 119.905 20.171 119.905 15.5691C119.908 11.0609 123.589 7.55029 127.91 7.55029Z" fill="white"/>
<path d="M136.427 7.88099V3.6098C136.427 3.213 136.764 2.88232 137.169 2.88232H139.093C139.498 2.88232 139.801 3.213 139.801 3.6098V7.88099H143.921C144.325 7.88099 144.662 8.1786 144.662 8.60847V9.96698C144.662 10.3307 144.325 10.6945 143.921 10.6945H139.801V18.84C139.801 20.1324 140.307 20.3969 141.052 20.3969C142.032 20.3969 142.976 20.0001 143.55 19.6695C144.022 19.4049 144.325 19.6695 144.46 20.0001L145.067 21.5571C145.236 21.9539 145.067 22.2184 144.696 22.4499C144.055 22.8467 142.232 23.5438 140.375 23.5438C137.267 23.5438 136.424 21.6893 136.424 18.9751V10.6972" fill="white"/>
<path d="M146.75 8.61127C146.75 8.24753 147.121 7.88379 147.492 7.88379H149.383C149.788 7.88379 150.125 8.24753 150.125 8.61127V16.7568C150.125 19.2727 151.173 20.3997 153.165 20.3997C155.427 20.3997 156.677 18.5783 156.812 17.8839V8.61127C156.812 7.98299 157.116 7.88379 157.689 7.88379H159.411C159.816 7.88379 160.187 8.24753 160.187 8.61127V22.4527C160.187 22.8495 159.816 23.1802 159.411 23.1802H158.602C158.197 23.1802 158.029 22.9156 157.894 22.5519L157.489 21.4579C157.152 21.7886 155.733 23.5439 152.558 23.5439C147.899 23.5439 146.75 20.5293 146.75 16.5226V8.61127Z" fill="white"/>
<path d="M163.297 21.9896C163.061 21.8243 162.859 21.5266 163.028 21.196L163.736 19.7713C163.904 19.4407 164.343 19.3415 164.75 19.5729C165.66 20.0689 166.776 20.7 168.633 20.7C169.951 20.7 170.693 20.0717 170.693 19.2092C170.693 18.1813 169.51 17.52 167.349 16.561C164.952 15.5001 163.129 14.2436 163.129 11.725C163.129 9.80431 164.514 7.55298 168.296 7.55298C170.457 7.55298 172.078 8.18126 172.854 8.68002C173.224 8.94456 173.393 9.4075 173.191 9.80706L172.651 10.868C172.415 11.3309 171.943 11.2978 171.637 11.1656C170.555 10.7026 169.51 10.405 168.293 10.405C166.942 10.405 166.301 11.0664 166.301 11.7635C166.301 12.7583 167.417 13.3535 168.968 14.0149C171.836 15.208 174 16.2331 174 19.0824C174 21.466 171.907 23.552 168.428 23.552C165.964 23.5465 164.174 22.5848 163.297 21.9896Z" fill="white"/>
<path d="M19.0311 4.82495H9.6996C4.34403 4.82495 0 9.08511 0 14.3373V15.0097C0 16.5004 0.351231 17.9113 0.972208 19.1651C1.01998 19.1045 1.06493 19.0328 1.10427 18.9447C2.84638 15.1695 5.58036 13.461 6.35026 12.6343C7.51354 11.3833 3.95908 10.6172 3.95908 10.6172C3.95908 10.6172 4.03776 9.2725 8.14576 9.76575C10.728 10.0799 11.4164 10.1185 11.4164 10.1185H14.5831C21.2312 9.77126 23.9849 12.6343 25.1144 14.8278C25.7916 16.145 25.3364 17.2031 24.0973 17.2031C22.0348 17.2031 19.8572 17.1563 19.8572 17.1563C19.8572 17.1563 19.5004 20.0111 15.7464 21.0279V17.1645L14.9147 17.1563C10.0227 17.1563 4.96501 20.8819 2.7958 23.9048V26.4482C2.7958 26.4482 3.14703 29.1073 5.15608 27.1701C6.71554 25.6683 8.54476 24.5248 12.2032 24.5248H19.0311C24.3895 24.5248 28.7307 20.2646 28.7307 15.0124V14.3401C28.7307 9.08512 24.3895 4.82495 19.0311 4.82495Z" fill="white"/>
</svg>
