<svg width="30" height="30" viewBox="0 0 30 30" fill="none" xmlns="http://www.w3.org/2000/svg">
<path d="M27.4399 20.3601L27.3999 20.3201L24.3999 18.4401C23.5599 17.8401 22.6399 17.6801 21.6799 17.9601C20.5599 18.2801 19.5999 19.2801 19.1199 20.5601C18.8399 21.3601 18.3599 21.6401 17.5199 21.5201C14.4399 21.1201 9.19991 15.6001 8.87991 12.4401C8.79991 11.5601 9.07991 11.0801 9.87991 10.8401C10.9999 10.4001 11.7999 9.60012 12.1199 8.60012C12.3999 7.60012 12.1999 6.56012 11.5199 5.60012L9.63991 2.60012L9.59991 2.56012C8.67991 1.32012 7.71991 0.680118 6.55991 0.600118C5.11991 0.480118 3.55991 1.28012 1.83991 3.00012C-2.28009 7.12012 1.23991 16.8801 7.15991 22.8001C11.2799 26.9201 17.2799 29.9201 21.9599 29.9201C23.8799 29.9201 25.5599 29.4001 26.7999 28.2801C26.8799 28.2401 26.9599 28.2001 26.9999 28.1201C28.7199 26.4001 29.5199 24.8401 29.3999 23.4001C29.3199 22.2401 28.6799 21.2401 27.4399 20.3601ZM25.9599 26.8401C25.9199 26.8801 25.8399 26.9201 25.7999 26.9601C22.6399 30.1201 14.1199 27.5201 8.23991 21.6401C2.39991 15.8001 -0.16009 7.28012 2.99991 4.12012C4.35991 2.76012 5.51991 2.08012 6.47991 2.16012C7.11991 2.20012 7.71991 2.64012 8.31991 3.44012L10.1999 6.44012L10.2399 6.48012C10.6399 7.00012 10.7599 7.60012 10.5999 8.12012C10.4399 8.64012 9.99991 9.08012 9.31991 9.32012C7.87991 9.80012 7.11991 11.0001 7.27991 12.6001C7.67991 16.5201 13.4799 22.6001 17.3199 23.1201C17.4799 23.1601 17.6799 23.1601 17.8399 23.1601C19.1599 23.1601 20.1599 22.4401 20.6399 21.1601C20.9599 20.3601 21.5199 19.7201 22.1599 19.5201C22.5999 19.4001 23.0399 19.4801 23.4799 19.8001L23.5199 19.8401L26.5199 21.7201C27.3599 22.3201 27.7599 22.9201 27.7999 23.5601C27.8799 24.4001 27.2399 25.5201 25.9599 26.8401Z" fill="#2F80ED"/>
<path d="M15.4399 0.120117C14.9999 0.120117 14.6399 0.480117 14.6399 0.920117C14.6399 1.36012 14.9999 1.72012 15.4399 1.72012C22.5599 1.72012 28.3599 7.52012 28.3599 14.6401C28.3599 15.0801 28.7199 15.4401 29.1599 15.4401C29.5999 15.4401 29.9599 15.0801 29.9599 14.6401C29.9599 6.60012 23.4399 0.120117 15.4399 0.120117Z" fill="#2F80ED"/>
<path d="M15.4399 4.95986C20.7599 4.95986 25.1199 9.27986 25.1199 14.6399C25.1199 15.0799 25.4799 15.4399 25.9199 15.4399C26.3599 15.4399 26.7199 15.0799 26.7199 14.6399C26.7199 8.43986 21.6799 3.35986 15.4399 3.35986C14.9999 3.35986 14.6399 3.71986 14.6399 4.15986C14.6399 4.59986 14.9999 4.95986 15.4399 4.95986Z" fill="#2F80ED"/>
<path d="M15.4399 8.28014C18.9599 8.28014 21.7999 11.1201 21.7999 14.6001C21.7999 15.0401 22.1599 15.4001 22.5999 15.4001C23.0399 15.4001 23.3999 15.0401 23.3999 14.6001C23.3999 10.2001 19.8399 6.64014 15.4399 6.64014C14.9999 6.64014 14.6399 7.00014 14.6399 7.44014C14.6399 7.92014 14.9999 8.28014 15.4399 8.28014Z" fill="#2F80ED"/>
</svg>
