<svg width="29" height="17" viewBox="0 0 29 17" fill="none" xmlns="http://www.w3.org/2000/svg">
<path d="M7.85418 14.5H5.43751C5.10401 14.5 4.83334 14.2293 4.83334 13.8958C4.83334 13.5623 5.10401 13.2917 5.43751 13.2917H7.85418C8.18768 13.2917 8.45834 13.5623 8.45834 13.8958C8.45834 14.2293 8.18768 14.5 7.85418 14.5Z" fill="black"/>
<path d="M27.4896 14.5H25.9792C25.6457 14.5 25.375 14.2293 25.375 13.8958C25.375 13.5623 25.6457 13.2917 25.9792 13.2917H26.9881L27.8026 8.95133C27.7917 6.73042 25.8946 4.83333 23.5625 4.83333H19.5956L17.6731 13.2917H21.1459C21.4794 13.2917 21.75 13.5623 21.75 13.8958C21.75 14.2293 21.4794 14.5 21.1459 14.5H16.9167C16.733 14.5 16.559 14.4166 16.4442 14.2728C16.3294 14.1303 16.2859 13.9418 16.327 13.7629L18.5238 4.09625C18.5866 3.81954 18.8307 3.625 19.1134 3.625H23.5625C26.5604 3.625 29 6.06463 29 9.0625L28.0829 14.007C28.0297 14.2934 27.7808 14.5 27.4896 14.5Z" fill="black"/>
<path d="M23.5625 16.9167C21.8974 16.9167 20.5417 15.5621 20.5417 13.8958C20.5417 12.2295 21.8974 10.875 23.5625 10.875C25.2276 10.875 26.5833 12.2295 26.5833 13.8958C26.5833 15.5621 25.2276 16.9167 23.5625 16.9167ZM23.5625 12.0833C22.5632 12.0833 21.75 12.8965 21.75 13.8958C21.75 14.8951 22.5632 15.7083 23.5625 15.7083C24.5618 15.7083 25.375 14.8951 25.375 13.8958C25.375 12.8965 24.5618 12.0833 23.5625 12.0833Z" fill="black"/>
<path d="M10.2708 16.9167C8.60576 16.9167 7.25001 15.5621 7.25001 13.8958C7.25001 12.2295 8.60576 10.875 10.2708 10.875C11.9359 10.875 13.2917 12.2295 13.2917 13.8958C13.2917 15.5621 11.9359 16.9167 10.2708 16.9167ZM10.2708 12.0833C9.27155 12.0833 8.45834 12.8965 8.45834 13.8958C8.45834 14.8951 9.27155 15.7083 10.2708 15.7083C11.2701 15.7083 12.0833 14.8951 12.0833 13.8958C12.0833 12.8965 11.2701 12.0833 10.2708 12.0833Z" fill="black"/>
<path d="M7.85417 3.625H3.02084C2.68734 3.625 2.41667 3.35433 2.41667 3.02083C2.41667 2.68733 2.68734 2.41667 3.02084 2.41667H7.85417C8.18767 2.41667 8.45834 2.68733 8.45834 3.02083C8.45834 3.35433 8.18767 3.625 7.85417 3.625Z" fill="black"/>
<path d="M7.85418 7.25H1.81251C1.47901 7.25 1.20834 6.97933 1.20834 6.64583C1.20834 6.31233 1.47901 6.04167 1.81251 6.04167H7.85418C8.18768 6.04167 8.45834 6.31233 8.45834 6.64583C8.45834 6.97933 8.18768 7.25 7.85418 7.25Z" fill="black"/>
<path d="M7.85417 10.875H0.604167C0.270667 10.875 0 10.6043 0 10.2708C0 9.93733 0.270667 9.66667 0.604167 9.66667H7.85417C8.18767 9.66667 8.45833 9.93733 8.45833 10.2708C8.45833 10.6043 8.18767 10.875 7.85417 10.875Z" fill="black"/>
<path d="M16.9167 14.5L12.6875 14.5C12.354 14.5 12.0833 14.2293 12.0833 13.8958C12.0833 13.5623 12.354 13.2917 12.6875 13.2917H16.4346L19.1799 1.20833H5.43751C5.10401 1.20833 4.83334 0.937667 4.83334 0.604167C4.83334 0.270667 5.10401 0 5.43751 0H19.9375C20.1212 0 20.2952 0.0833752 20.41 0.227167C20.5248 0.36975 20.5683 0.55825 20.5272 0.737083L17.5063 14.0287C17.4435 14.3055 17.1982 14.5 16.9167 14.5Z" fill="black"/>
</svg>
