<svg width="23" height="22" viewBox="0 0 23 22" fill="none" xmlns="http://www.w3.org/2000/svg">
<path d="M22.3125 10.3984H21.3211C21.5413 10.0189 21.668 9.57881 21.668 9.10938V7.17578C21.668 6.81983 21.3794 6.53125 21.0234 6.53125H19.8029C20.1742 4.80137 21.9349 3.85352 21.9653 3.8375C22.2804 3.67366 22.4037 3.28552 22.2405 2.96978C22.0771 2.65353 21.6883 2.52961 21.372 2.69302C21.3088 2.72577 20.4899 3.15842 19.7344 3.99536V1.97656C19.7344 1.62061 19.4458 1.33203 19.0898 1.33203C18.7339 1.33203 18.4453 1.62061 18.4453 1.97656V3.99536C17.6898 3.15842 16.8709 2.72577 16.8076 2.69302C16.4913 2.52953 16.1025 2.65358 15.9391 2.96978C15.7757 3.28604 15.8996 3.67486 16.2158 3.83823C16.2358 3.84854 18.0075 4.78427 18.3777 6.53125H17.1562C16.8003 6.53125 16.5117 6.81983 16.5117 7.17578V9.10938C16.5117 9.57881 16.6384 10.0189 16.8586 10.3984H11.0663L10.4218 9.10938H13.2891C13.645 9.10938 13.9336 8.8208 13.9336 8.46484V0.644531C13.9336 0.288578 13.645 0 13.2891 0H2.89062C2.53467 0 2.24609 0.288578 2.24609 0.644531V8.46484C2.24609 8.8208 2.53467 9.10938 2.89062 9.10938H5.75793L5.1134 10.3984H1.60156C1.24561 10.3984 0.957031 10.687 0.957031 11.043C0.957031 11.3989 1.24561 11.6875 1.60156 11.6875H2.24609V21.3555C2.24609 21.7114 2.53467 22 2.89062 22C3.24658 22 3.53516 21.7114 3.53516 21.3555V19.4219H12.6445V21.3555C12.6445 21.7114 12.9331 22 13.2891 22H21.0234C21.3794 22 21.668 21.7114 21.668 21.3555V11.6875H22.3125C22.6685 11.6875 22.957 11.3989 22.957 11.043C22.957 10.687 22.6685 10.3984 22.3125 10.3984ZM17.8008 9.10938V7.82031H20.3789V9.10938C20.3789 9.82016 19.8006 10.3984 19.0898 10.3984C18.3791 10.3984 17.8008 9.82016 17.8008 9.10938ZM3.53516 1.28906H12.6445V7.82031H3.53516V1.28906ZM7.1991 9.10938H8.98059L9.62512 10.3984H6.55457L7.1991 9.10938ZM3.53516 18.1328V11.6875H12.6445V18.1328H3.53516ZM13.9336 16.8438H20.3789V20.7109H13.9336V16.8438ZM20.3789 15.5547H13.9336V11.6875H20.3789V15.5547Z" fill="black"/>
<path d="M17.1562 14.2656C17.5122 14.2656 17.8008 13.9771 17.8008 13.6211C17.8008 13.2651 17.5122 12.9766 17.1562 12.9766C16.8003 12.9766 16.5117 13.2651 16.5117 13.6211C16.5117 13.9771 16.8003 14.2656 17.1562 14.2656Z" fill="black"/>
<path d="M17.1562 19.4219C17.5122 19.4219 17.8008 19.1333 17.8008 18.7773C17.8008 18.4214 17.5122 18.1328 17.1562 18.1328C16.8003 18.1328 16.5117 18.4214 16.5117 18.7773C16.5117 19.1333 16.8003 19.4219 17.1562 19.4219Z" fill="black"/>
</svg>
