<svg width="16" height="16" viewBox="0 0 16 16" fill="none" xmlns="http://www.w3.org/2000/svg">
<path d="M5.21922 1H3C1.89543 1 1 1.89543 1 3V5C1 10.5228 5.47715 15 11 15H13C14.1046 15 15 14.1046 15 13V11.618C15 11.2393 14.786 10.893 14.4472 10.7236L12.0313 9.51564C11.487 9.24349 10.8278 9.51652 10.6354 10.0938L10.3376 10.9871C10.1447 11.5658 9.55118 11.9102 8.95309 11.7906C6.55929 11.3119 4.68814 9.44071 4.20938 7.04691C4.08976 6.44882 4.43422 5.85526 5.01286 5.66238L6.12149 5.29284C6.61721 5.1276 6.90214 4.60855 6.7754 4.10162L6.18937 1.75746C6.07807 1.3123 5.67809 1 5.21922 1Z" stroke="black"/>
</svg>
