<svg width="17" height="20" viewBox="0 0 17 20" fill="none" xmlns="http://www.w3.org/2000/svg">
<path d="M2.00802 8.5723L1.51107 8.51709L2.00802 8.5723ZM1.00802 17.5723L1.50496 17.6275L1.00802 17.5723ZM16.1193 17.5723L15.6224 17.6275L16.1193 17.5723ZM15.1193 8.5723L15.6163 8.51709V8.51708L15.1193 8.5723ZM1.51107 8.51709L0.511074 17.5171L1.50496 17.6275L2.50496 8.62752L1.51107 8.51709ZM2.28587 19.5H14.8415V18.5H2.28587V19.5ZM16.6163 17.5171L15.6163 8.51709L14.6224 8.62752L15.6224 17.6275L16.6163 17.5171ZM13.8415 6.92857H3.28587V7.92857H13.8415V6.92857ZM15.6163 8.51708C15.5158 7.61274 14.7514 6.92857 13.8415 6.92857V7.92857C14.2418 7.92857 14.5782 8.22961 14.6224 8.62752L15.6163 8.51708ZM14.8415 19.5C15.9058 19.5 16.7338 18.5749 16.6163 17.5171L15.6224 17.6275C15.6741 18.0929 15.3098 18.5 14.8415 18.5V19.5ZM0.511074 17.5171C0.393541 18.5749 1.22156 19.5 2.28587 19.5V18.5C1.81757 18.5 1.45324 18.0929 1.50496 17.6275L0.511074 17.5171ZM2.50496 8.62752C2.54917 8.22961 2.88551 7.92857 3.28587 7.92857V6.92857C2.37596 6.92857 1.61156 7.61274 1.51107 8.51709L2.50496 8.62752ZM5.20653 5.5V4.85714H4.20653V5.5H5.20653ZM11.9208 4.85714V5.5H12.9208V4.85714H11.9208ZM8.56367 1.5C10.4178 1.5 11.9208 3.00304 11.9208 4.85714H12.9208C12.9208 2.45076 10.9701 0.5 8.56367 0.5V1.5ZM5.20653 4.85714C5.20653 3.00304 6.70957 1.5 8.56367 1.5V0.5C6.15729 0.5 4.20653 2.45076 4.20653 4.85714H5.20653Z" fill="black"/>
</svg>
