<svg width="23" height="22" viewBox="0 0 23 22" fill="none" xmlns="http://www.w3.org/2000/svg">
<path d="M22.7717 18.3255C22.5233 18.0729 22.1181 18.0685 21.8641 18.3145C21.8641 18.3145 21.8632 18.3149 21.862 18.3161L21.8602 18.3143L21.8639 18.3107C21.8617 18.3127 21.7854 18.3842 21.6246 18.501V8.46145C21.6246 8.1055 21.3361 7.81693 20.9801 7.81693C20.6242 7.81693 20.3356 8.1055 20.3356 8.46145V9.09862C18.0346 9.04633 16.8496 8.71517 15.7014 8.39386C14.6413 8.09717 13.64 7.81693 11.9568 7.81693C10.2736 7.81693 9.27226 8.09717 8.21219 8.39386C7.064 8.71522 5.87907 9.04637 3.57804 9.09862V5.88336C3.57804 3.57057 4.63222 1.99566 6.54641 1.44872C8.32412 0.940834 10.1995 1.67812 11.1667 3.2132C10.9322 3.32904 10.7334 3.45331 10.5707 3.58582L9.8345 2.84952C9.58283 2.59781 9.17472 2.59781 8.92301 2.84952C8.67131 3.10123 8.67131 3.50929 8.92301 3.761L9.75634 4.59432L8.92301 5.42765C8.67131 5.67935 8.67131 6.08742 8.92301 6.33913C9.17468 6.59079 9.58279 6.59083 9.8345 6.33913L10.5708 5.60287C10.7934 5.78419 11.0834 5.95022 11.4403 6.10014C12.0498 6.35601 12.7753 6.52797 13.2459 6.52797C14.3121 6.52797 15.1795 5.66057 15.1795 4.59441C15.1795 3.52824 14.3121 2.66085 13.2459 2.66085C13.0134 2.66085 12.7187 2.70291 12.4065 2.77626C11.1887 0.591332 8.62073 -0.484503 6.19235 0.20926C3.71176 0.918018 2.28904 2.98616 2.28904 5.88336V18.501C2.12826 18.3841 2.05194 18.3127 2.0498 18.3106L2.05349 18.3142L2.05173 18.316C2.05139 18.3157 2.04984 18.3142 2.04984 18.3142C1.79581 18.0683 1.39045 18.0728 1.14205 18.3254C0.892451 18.5792 0.895802 18.9872 1.14961 19.2369C1.20565 19.2926 1.93679 19.9887 3.64086 20.6654C5.34485 21.3427 8.01845 22.0002 11.9569 22C15.8953 22.0002 18.5689 21.3427 20.2729 20.6654C21.9769 19.9887 22.7081 19.2926 22.7641 19.2369C23.0179 18.9873 23.0213 18.5792 22.7717 18.3255ZM12.1081 4.21045C12.5686 4.03935 13.0291 3.9498 13.2459 3.9498C13.6013 3.9498 13.8904 4.23893 13.8904 4.59432C13.8904 4.94971 13.6013 5.23884 13.2459 5.23884C13.0291 5.23884 12.5686 5.1493 12.1081 4.9782C11.7087 4.82974 11.4836 4.68541 11.3749 4.59432C11.4836 4.50323 11.7087 4.3589 12.1081 4.21045ZM3.57809 10.3878C6.06435 10.333 7.38484 9.964 8.55963 9.63516C9.57432 9.35119 10.4506 9.10597 11.9569 9.10597C13.4631 9.10597 14.3394 9.35123 15.3541 9.63516C16.5289 9.96396 17.8494 10.333 20.3356 10.3878V16.8402H3.57809V10.3878ZM3.57809 18.1293H20.3356V19.2335C17.8845 20.3596 14.6765 20.7073 11.9569 20.7073C9.23741 20.7073 6.02933 20.3597 3.57809 19.2335V18.1293Z" fill="black"/>
<path d="M6.8002 15.5512C7.15615 15.5512 7.44473 15.2626 7.44473 14.9067V12.3286C7.44473 11.9726 7.15615 11.6841 6.8002 11.6841C6.44426 11.6841 6.15568 11.9726 6.15568 12.3286V14.9067C6.15568 15.2626 6.44426 15.5512 6.8002 15.5512Z" fill="black"/>
<path d="M9.37827 15.5512C9.73422 15.5512 10.0228 15.2626 10.0228 14.9067V12.3286C10.0228 11.9726 9.73422 11.6841 9.37827 11.6841C9.02232 11.6841 8.73375 11.9726 8.73375 12.3286V14.9067C8.73375 15.2626 9.02232 15.5512 9.37827 15.5512Z" fill="black"/>
<path d="M11.9564 15.5512C12.3123 15.5512 12.6009 15.2626 12.6009 14.9067V12.3286C12.6009 11.9726 12.3123 11.6841 11.9564 11.6841C11.6004 11.6841 11.3118 11.9726 11.3118 12.3286V14.9067C11.3118 15.2626 11.6004 15.5512 11.9564 15.5512Z" fill="black"/>
<path d="M14.5345 15.5512C14.8904 15.5512 15.179 15.2626 15.179 14.9067V12.3286C15.179 11.9726 14.8904 11.6841 14.5345 11.6841C14.1785 11.6841 13.8899 11.9726 13.8899 12.3286V14.9067C13.8899 15.2626 14.1785 15.5512 14.5345 15.5512Z" fill="black"/>
<path d="M17.1125 15.5512C17.4685 15.5512 17.757 15.2626 17.757 14.9067V12.3286C17.757 11.9726 17.4685 11.6841 17.1125 11.6841C16.7566 11.6841 16.468 11.9726 16.468 12.3286V14.9067C16.468 15.2626 16.7566 15.5512 17.1125 15.5512Z" fill="black"/>
</svg>
