<svg width="22" height="22" viewBox="0 0 22 22" fill="none" xmlns="http://www.w3.org/2000/svg">
<path d="M21.2695 0H0.644531C0.288578 0 0 0.288578 0 0.644531C0 1.00048 0.288578 1.28906 0.644531 1.28906H0.6875V21.3555C0.6875 21.7114 0.976078 22 1.33203 22C1.68798 22 1.97656 21.7114 1.97656 21.3555V20.9688H19.9375V21.3555C19.9375 21.7114 20.2261 22 20.582 22C20.938 22 21.2266 21.7114 21.2266 21.3555V1.28906H21.2695C21.6255 1.28906 21.9141 1.00048 21.9141 0.644531C21.9141 0.288578 21.6255 0 21.2695 0ZM11.6016 13.3633H19.9375V15.8555H11.6016V13.3633ZM19.9375 12.0742H11.6016V9.58203H19.9375V12.0742ZM10.3125 19.6797H6.78906V1.28906H10.3125V19.6797ZM1.97656 1.28906H5.5V19.6797H1.97656V1.28906ZM11.6016 19.6797V17.1445H19.9375V19.6797H11.6016ZM19.9375 8.29297H11.6016V1.28906H19.9375V8.29297Z" fill="black"/>
<path d="M8.55078 11.6445C8.90675 11.6445 9.19531 11.356 9.19531 11C9.19531 10.644 8.90675 10.3555 8.55078 10.3555C8.19482 10.3555 7.90625 10.644 7.90625 11C7.90625 11.356 8.19482 11.6445 8.55078 11.6445Z" fill="black"/>
<path d="M3.73828 11.6446C4.09425 11.6446 4.38281 11.356 4.38281 11C4.38281 10.6441 4.09425 10.3555 3.73828 10.3555C3.38232 10.3555 3.09375 10.6441 3.09375 11C3.09375 11.356 3.38232 11.6446 3.73828 11.6446Z" fill="black"/>
</svg>
