<svg width="17" height="17" viewBox="0 0 17 17" fill="none" xmlns="http://www.w3.org/2000/svg">
<path d="M12.25 4.21429H13.3214M5.28571 1H11.7143C14.0812 1 16 2.91878 16 5.28571V11.7143C16 14.0812 14.0812 16 11.7143 16H5.28571C2.91878 16 1 14.0812 1 11.7143V5.28571C1 2.91878 2.91878 1 5.28571 1ZM8.5 11.7143C6.7248 11.7143 5.28571 10.2752 5.28571 8.5C5.28571 6.7248 6.7248 5.28571 8.5 5.28571C10.2752 5.28571 11.7143 6.7248 11.7143 8.5C11.7143 10.2752 10.2752 11.7143 8.5 11.7143Z" stroke="black"/>
</svg>
