<svg width="30" height="23" viewBox="0 0 30 23" fill="none" xmlns="http://www.w3.org/2000/svg">
<path d="M29.5312 15.9375H28.125V13.125H29.0625C29.3214 13.1249 29.5311 12.9149 29.531 12.656C29.531 12.6304 29.5289 12.6047 29.5247 12.5794L29.0559 9.76688C29.0184 9.54082 28.8229 9.37512 28.5938 9.375H26.7188C26.4896 9.37512 26.2941 9.54082 26.2566 9.76688L25.7878 12.5794C25.7453 12.8347 25.9179 13.0762 26.1734 13.1187C26.1987 13.1229 26.2243 13.125 26.25 13.125H27.1875V15.9375H25.3125C25.2967 15.9397 25.281 15.9428 25.2656 15.9469C25.0455 14.8525 24.0851 14.0644 22.9688 14.0625H22.0312V12.6562C22.0312 11.8796 21.4017 11.25 20.625 11.25H16.875C16.0983 11.25 15.4688 11.8796 15.4688 12.6562V14.0625H14.5312V12.6562C14.5312 11.8796 13.9017 11.25 13.125 11.25H9.375C8.59834 11.25 7.96875 11.8796 7.96875 12.6562V14.0625H7.03125C5.91492 14.0644 4.95445 14.8525 4.73438 15.9469C4.71897 15.9428 4.70332 15.9397 4.6875 15.9375H2.8125V13.125H3.75C4.00887 13.1249 4.21863 12.9149 4.21852 12.656C4.21852 12.6304 4.21641 12.6047 4.21219 12.5794L3.74344 9.76688C3.70588 9.54082 3.51041 9.37512 3.28125 9.375H1.40625C1.17709 9.37512 0.981621 9.54082 0.944062 9.76688L0.475313 12.5794C0.432832 12.8347 0.605449 13.0762 0.860859 13.1187C0.886172 13.1229 0.911836 13.125 0.9375 13.125H1.875V15.9375H0.46875C0.209883 15.9375 0 16.1474 0 16.4062V21.5625C0 21.8214 0.209883 22.0312 0.46875 22.0312H29.5312C29.7901 22.0312 30 21.8214 30 21.5625V16.4062C30 16.1474 29.7901 15.9375 29.5312 15.9375ZM1.49109 12.1875L1.80328 10.3125H2.88422L3.19641 12.1875H1.49109ZM4.21875 21.0938H0.9375V16.875H4.21875V21.0938ZM16.4062 12.6562C16.4062 12.3974 16.6161 12.1875 16.875 12.1875H20.625C20.8839 12.1875 21.0938 12.3974 21.0938 12.6562V14.0625H16.4062V12.6562ZM8.90625 12.6562C8.90625 12.3974 9.11613 12.1875 9.375 12.1875H13.125C13.3839 12.1875 13.5938 12.3974 13.5938 12.6562V14.0625H8.90625V12.6562ZM24.375 21.0938H5.625V19.6875H24.375V21.0938ZM24.375 18.75H5.625V16.4062C5.625 15.6296 6.25459 15 7.03125 15H22.9688C23.7454 15 24.375 15.6296 24.375 16.4062V18.75ZM26.8036 12.1875L27.1158 10.3125H28.1967L28.5089 12.1875H26.8036ZM29.0625 21.0938H25.7812V16.875H29.0625V21.0938Z" fill="black"/>
<path d="M9.375 8.4375H19.6875C19.9464 8.4375 20.1562 8.22762 20.1562 7.96875V0.46875C20.1562 0.209883 19.9464 0 19.6875 0H9.375C9.11613 0 8.90625 0.209883 8.90625 0.46875V7.96875C8.90625 8.22762 9.11613 8.4375 9.375 8.4375ZM9.84375 0.9375H19.2188V5.69438L18.1786 4.39453C18.0954 4.29029 17.9719 4.22637 17.8387 4.21875C17.7058 4.21289 17.5764 4.26223 17.4811 4.35516L15.9375 5.89969L12.9877 2.94984C12.8145 2.77693 12.5374 2.76633 12.3516 2.92547L9.84375 5.07516V0.9375ZM9.84375 6.30891L12.6314 3.91828L15.6061 6.8925C15.7891 7.07549 16.0859 7.07549 16.2689 6.8925L17.7736 5.38781L19.2188 7.19625V7.5H9.84375V6.30891Z" fill="black"/>
<path d="M16.4062 4.21875C17.1829 4.21875 17.8125 3.58916 17.8125 2.8125C17.8125 2.03584 17.1829 1.40625 16.4062 1.40625C15.6296 1.40625 15 2.03584 15 2.8125C15 3.58916 15.6296 4.21875 16.4062 4.21875ZM16.4062 2.34375C16.6651 2.34375 16.875 2.55363 16.875 2.8125C16.875 3.07137 16.6651 3.28125 16.4062 3.28125C16.1474 3.28125 15.9375 3.07137 15.9375 2.8125C15.9375 2.55363 16.1474 2.34375 16.4062 2.34375Z" fill="black"/>
</svg>
