<svg width="36" height="29" viewBox="0 0 36 29" fill="none" xmlns="http://www.w3.org/2000/svg">
<path d="M23.8436 0H12.1524C5.44252 0 0 5.33745 0 11.9178V12.7602C0 14.6279 0.440048 16.3956 1.21805 17.9664C1.2779 17.8905 1.33423 17.8007 1.38351 17.6902C3.56615 12.9604 6.99149 10.8199 7.95608 9.78417C9.41352 8.21677 4.96023 7.25699 4.96023 7.25699C4.96023 7.25699 5.0588 5.57221 10.2056 6.1902C13.4408 6.58377 14.3033 6.63211 14.3033 6.63211H18.2708C26.6 6.1971 30.05 9.78417 31.4652 12.5323C32.3136 14.1826 31.7433 15.5083 30.1908 15.5083C27.6069 15.5083 24.8786 15.4496 24.8786 15.4496C24.8786 15.4496 24.4315 19.0263 19.7283 20.3003V15.46L18.6862 15.4496C12.5572 15.4496 6.22052 20.1173 3.50279 23.9046V27.0912C3.50279 27.0912 3.94283 30.4228 6.45991 27.9957C8.41373 26.1141 10.7055 24.6814 15.289 24.6814H23.8436C30.557 24.6814 35.996 19.3439 35.996 12.7636V11.9212C35.996 5.33745 30.557 0 23.8436 0Z" fill="#11B55B"/>
</svg>
