<svg width="40" height="40" viewBox="0 0 40 40" fill="none" xmlns="http://www.w3.org/2000/svg">
<path d="M24.2515 5.6189H15.7475C14.1619 5.6189 12.8711 6.9089 12.8711 8.4945V11.6221H9.36952C6.61112 11.6221 4.36792 13.8657 4.36792 16.6237V29.3797C4.36792 32.1381 6.61152 34.3813 9.36952 34.3813H30.6299C33.3883 34.3813 35.6323 32.1377 35.6323 29.3797V16.6237C35.6323 13.8653 33.3883 11.6221 30.6299 11.6221H27.1275V8.4945C27.1271 6.9085 25.8367 5.6189 24.2515 5.6189ZM14.3711 8.4945C14.3711 7.7357 14.9887 7.1189 15.7475 7.1189H24.2519C25.0107 7.1189 25.6275 7.7357 25.6275 8.4945V11.6221H23.5007V10.3453C23.5007 9.4629 22.7831 8.7449 21.9003 8.7449H18.0991C17.2167 8.7449 16.4987 9.4625 16.4987 10.3453V11.6221H14.3719V8.4945H14.3711ZM22.0003 11.6217H18.0335L18.0987 10.2449L22.0003 10.3453V11.6217ZM30.6295 32.8813H9.36952C7.43872 32.8813 5.86792 31.3101 5.86792 29.3797V21.6253H14.9975V23.0017C14.9975 24.5873 16.2879 25.8781 17.8739 25.8781H22.1255C23.7111 25.8781 25.0019 24.5877 25.0019 23.0017V21.6253H34.1323V29.3797C34.1323 31.3101 32.5603 32.8813 30.6295 32.8813ZM16.4975 21.6253H23.5019V23.0017C23.5019 23.7605 22.8851 24.3781 22.1255 24.3781H17.8735C17.1147 24.3781 16.4971 23.7605 16.4971 23.0017V21.6253H16.4975ZM34.1323 16.6237V20.1253H5.86752V16.6237C5.86752 14.6929 7.43872 13.1221 9.36912 13.1221H30.6295C32.5603 13.1217 34.1323 14.6929 34.1323 16.6237Z" fill="#2F80ED"/>
</svg>
