<svg width="100" height="60" viewBox="0 0 100 60" fill="none" xmlns="http://www.w3.org/2000/svg">
<path fill-rule="evenodd" clip-rule="evenodd" d="M59.4001 33.7461C59.4298 31.6565 59.4023 29.5459 59.4023 27.4539C59.4023 25.9301 59.0435 23.2822 61.559 23.384C63.935 23.4802 63.612 26.0012 63.612 27.5234C63.612 29.6029 63.591 31.6935 63.6141 33.7721L65.971 33.7684C65.9911 31.6902 65.9727 29.6025 65.9727 27.5234C65.9727 26.0085 65.6417 23.4085 68.112 23.3806C70.5702 23.353 70.1863 25.9894 70.1863 27.5929C70.1863 29.6457 70.1626 31.713 70.1887 33.771L72.6542 33.7649C72.6769 31.8975 72.6566 30.0171 72.6566 28.1482C72.6566 26.3095 72.7995 24.6362 71.9562 23.2355C70.6521 21.0689 66.7096 20.2579 64.819 23.4224C64.545 23.1784 64.362 22.5981 63.6435 22.0954C61.9345 20.8996 59.4137 21.3464 56.9336 21.3464L56.9357 33.7774L59.4001 33.7461Z" fill="black"/>
<path fill-rule="evenodd" clip-rule="evenodd" d="M97.3685 28.5647C97.2625 29.7423 96.8822 30.7292 96.2611 31.2969C94.5364 32.8734 90.5116 32.4792 91.0775 26.6915C91.2852 24.5698 92.6364 22.6319 95.097 23.3248C97.0242 23.8673 97.5855 26.151 97.3685 28.5647ZM88.5374 28.4259C88.7732 31.8393 91.1841 34.412 94.8642 34.0552C98.6597 33.6872 100.071 30.4035 99.8962 26.964C99.4966 19.1055 87.8959 19.1468 88.5374 28.4259Z" fill="black"/>
<path fill-rule="evenodd" clip-rule="evenodd" d="M47.1589 23.2623C49.5754 22.8086 50.7564 24.8524 50.8766 27.0343C50.9889 29.067 50.64 31.6516 48.2597 32.044C45.8406 32.4425 44.6332 30.539 44.5345 28.2893C44.426 25.8226 44.9799 23.6715 47.1589 23.2623ZM53.3966 28.2871C53.9226 21.8214 47.5025 19.3683 43.825 22.7789C42.8676 23.6669 42.1709 25.1519 42.0224 26.9914C41.7174 30.7673 43.71 33.7043 47.0167 34.0518C49.1667 34.2775 50.9556 33.4169 51.9772 32.1729C52.3504 31.7184 52.595 31.3139 52.8439 30.7511C53.1717 30.0098 53.323 29.1934 53.3966 28.2871Z" fill="black"/>
<path fill-rule="evenodd" clip-rule="evenodd" d="M31.0372 23.4292C34.2421 23.1957 36.1708 24.1748 36.2969 27.3146C36.4283 30.587 34.9274 31.8867 31.7834 31.8867L31.3008 31.8886L31.0376 31.8771L31.0372 23.4292ZM28.6241 33.7607C30.6773 33.8841 34.1808 33.963 35.9408 32.9613C37.6001 32.017 38.8204 30.3398 38.8179 27.662C38.8139 23.497 36.0388 21.7728 32.6108 21.61C31.6241 21.5631 29.5708 21.4876 28.6223 21.6048L28.6241 33.7607Z" fill="black"/>
<path fill-rule="evenodd" clip-rule="evenodd" d="M79.1074 23.4859L85.1557 23.4861C85.1804 23.0637 85.2392 21.897 85.1167 21.586L77.4871 21.5857C77.1844 21.5844 76.6899 21.4822 76.6899 21.7601L76.6908 33.7491L85.3387 33.7658L85.3779 31.8162L79.1266 31.816L79.1231 28.4337L84.8584 28.4265L84.8582 26.5554L79.1134 26.5509L79.1074 23.4859Z" fill="black"/>
<path d="M1.29742 0.0335083H59.3898V18.6879H56.9474V2.49389H2.51872V57.4704H56.9474V36.6547H59.3898V59.9308H0.0761719V0.0335083H1.29742Z" fill="#FFCF10"/>
</svg>
